<svg width="3208" height="1340" viewBox="0 0 3208 1340" fill="none" xmlns="http://www.w3.org/2000/svg">
<g clip-path="url(#clip0_7_74)">
<path d="M542.427 1071.59C673.785 1071.59 789.075 956.771 802.365 844.078C815.654 731.385 805.022 663.344 721.857 522.752C604.969 325.151 508.788 144 508.788 144C508.788 144 415.176 368.419 327.574 542.574C283.06 631.068 249 684.164 249 813.01C249 985.042 411.069 1071.59 542.427 1071.59Z" fill="url(#paint0_linear_7_74)"/>
<path d="M738.045 815.373C738.045 928.066 631.501 1008.33 532.858 1008.33C434.216 1008.33 314.915 944.545 314.915 815.373C314.914 718.627 340.492 678.76 373.919 612.313C439.703 481.547 510.001 313.039 510.001 313.039C510.001 313.039 579.64 431.679 670.318 578.293M464.817 719.159V892.983M464.817 719.159C464.817 719.159 537.233 719.159 565.938 719.159M464.817 719.159V578.293C464.817 578.293 680.635 582.546 696.582 572.446" stroke="white" stroke-width="48"/>
<path d="M746.99 848.24C730.836 864.393 710.39 875.578 688.075 880.467C665.759 885.357 642.51 883.747 621.081 875.827C599.653 867.908 580.944 854.012 567.171 835.786C553.398 817.559 545.139 795.767 543.373 772.99C541.606 750.214 546.406 727.408 557.204 707.276C568.001 687.144 584.344 670.529 604.295 659.4C624.246 648.272 646.969 643.096 669.771 644.486C692.574 645.876 714.5 653.774 732.952 667.243L704.692 705.955C693.642 697.889 680.511 693.159 666.855 692.327C653.199 691.494 639.591 694.594 627.643 701.258C615.695 707.923 605.908 717.873 599.442 729.93C592.975 741.986 590.101 755.644 591.159 769.284C592.217 782.924 597.163 795.975 605.411 806.89C613.659 817.805 624.863 826.127 637.696 830.87C650.529 835.612 664.452 836.576 677.816 833.648C691.18 830.72 703.425 824.022 713.099 814.348L746.99 848.24Z" fill="white"/>
<path d="M479.17 536.83L434.518 634.639L438.771 545.867L479.17 536.83Z" fill="url(#paint1_linear_7_74)"/>
<path d="M732.729 824.411C732.729 824.411 694.987 847.267 573.789 905.74C531.214 926.281 489.036 897.462 458.438 899.893C401.56 882.737 373.387 925.409 373.387 925.409C480.233 1043.95 732.729 986.539 732.729 824.411Z" fill="#0980B7"/>
<path d="M379.766 955.48C543.49 1014.49 616.315 896.704 712.529 914.246" stroke="white" stroke-width="12"/>
<path d="M738.044 860.557C645.551 1055.11 470.101 902.467 373.387 920.625" stroke="white" stroke-width="12"/>
<path d="M310.662 862.457C366.472 987.328 370.125 855.856 505.508 901.52C640.891 947.185 658.841 806.867 764.092 814.842" stroke="white" stroke-width="22"/>
<path d="M956.815 603V341.182H1135.54V392.574H1020.1V446.267H1124.16V497.787H1020.1V603H956.815ZM1230.68 341.182V603H1167.4V341.182H1230.68ZM1270.41 603V341.182H1378.56C1398.16 341.182 1415.08 344.719 1429.32 351.793C1443.63 358.781 1454.67 368.838 1462.43 381.963C1470.18 395.003 1474.06 410.472 1474.06 428.369C1474.06 446.523 1470.1 461.949 1462.17 474.648C1454.24 487.261 1442.99 496.892 1428.42 503.54C1413.85 510.102 1396.59 513.384 1376.64 513.384H1308.25V463.526H1364.88C1374.43 463.526 1382.4 462.29 1388.79 459.818C1395.27 457.261 1400.17 453.426 1403.49 448.312C1406.82 443.114 1408.48 436.466 1408.48 428.369C1408.48 420.273 1406.82 413.582 1403.49 408.298C1400.17 402.929 1395.27 398.923 1388.79 396.281C1382.31 393.554 1374.34 392.19 1364.88 392.19H1333.69V603H1270.41ZM1417.81 483.341L1483.01 603H1413.97L1350.05 483.341H1417.81ZM1650.29 419.676C1649.44 410.301 1645.64 403.014 1638.91 397.815C1632.26 392.531 1622.76 389.889 1610.4 389.889C1602.22 389.889 1595.4 390.955 1589.95 393.085C1584.49 395.216 1580.4 398.156 1577.67 401.906C1574.95 405.571 1573.54 409.79 1573.46 414.562C1573.29 418.483 1574.05 421.935 1575.76 424.918C1577.55 427.901 1580.1 430.543 1583.43 432.844C1586.84 435.06 1590.93 437.02 1595.7 438.724C1600.47 440.429 1605.84 441.92 1611.81 443.199L1634.31 448.312C1647.26 451.125 1658.68 454.875 1668.57 459.562C1678.54 464.25 1686.89 469.832 1693.63 476.31C1700.44 482.787 1705.6 490.244 1709.1 498.682C1712.59 507.119 1714.38 516.58 1714.46 527.062C1714.38 543.597 1710.2 557.787 1701.94 569.634C1693.67 581.48 1681.78 590.557 1666.27 596.864C1650.84 603.17 1632.22 606.324 1610.4 606.324C1588.5 606.324 1569.41 603.043 1553.13 596.48C1536.85 589.918 1524.19 579.946 1515.16 566.565C1506.13 553.185 1501.48 536.267 1501.23 515.812H1561.82C1562.33 524.25 1564.59 531.281 1568.6 536.906C1572.6 542.531 1578.1 546.793 1585.09 549.69C1592.16 552.588 1600.35 554.037 1609.63 554.037C1618.16 554.037 1625.4 552.886 1631.37 550.585C1637.42 548.284 1642.06 545.088 1645.3 540.997C1648.54 536.906 1650.2 532.219 1650.29 526.935C1650.2 521.991 1648.67 517.773 1645.69 514.278C1642.7 510.699 1638.1 507.631 1631.88 505.074C1625.74 502.432 1617.9 500.003 1608.36 497.787L1581 491.395C1558.33 486.196 1540.47 477.801 1527.43 466.21C1514.39 454.534 1507.92 438.767 1508 418.909C1507.92 402.716 1512.26 388.526 1521.04 376.338C1529.82 364.151 1541.96 354.648 1557.48 347.83C1572.99 341.011 1590.67 337.602 1610.53 337.602C1630.81 337.602 1648.41 341.054 1663.33 347.957C1678.33 354.776 1689.96 364.364 1698.23 376.722C1706.5 389.08 1710.71 403.398 1710.88 419.676H1650.29ZM1737.86 392.574V341.182H1959.15V392.574H1879.76V603H1817.38V392.574H1737.86ZM2305.06 436.04H2241.14C2240.28 429.477 2238.54 423.554 2235.9 418.27C2233.25 412.986 2229.76 408.469 2225.41 404.719C2221.07 400.969 2215.91 398.114 2209.94 396.153C2204.06 394.108 2197.54 393.085 2190.38 393.085C2177.69 393.085 2166.73 396.196 2157.53 402.418C2148.41 408.639 2141.38 417.631 2136.44 429.392C2131.58 441.153 2129.15 455.386 2129.15 472.091C2129.15 489.477 2131.62 504.051 2136.56 515.812C2141.59 527.489 2148.62 536.31 2157.66 542.276C2166.78 548.156 2177.56 551.097 2190 551.097C2196.99 551.097 2203.34 550.202 2209.05 548.412C2214.84 546.622 2219.92 544.023 2224.26 540.614C2228.69 537.119 2232.32 532.901 2235.13 527.957C2238.03 522.929 2240.03 517.261 2241.14 510.955L2305.06 511.338C2303.95 522.929 2300.58 534.349 2294.96 545.599C2289.42 556.849 2281.79 567.119 2272.07 576.409C2262.36 585.614 2250.51 592.943 2236.53 598.398C2222.64 603.852 2206.71 606.58 2188.72 606.58C2165.03 606.58 2143.81 601.381 2125.06 590.983C2106.39 580.5 2091.65 565.244 2080.82 545.216C2070 525.187 2064.59 500.812 2064.59 472.091C2064.59 443.284 2070.09 418.866 2081.08 398.838C2092.07 378.81 2106.95 363.597 2125.7 353.199C2144.45 342.801 2165.46 337.602 2188.72 337.602C2204.57 337.602 2219.23 339.818 2232.7 344.25C2246.17 348.597 2258.01 354.989 2268.24 363.426C2278.47 371.778 2286.78 382.048 2293.17 394.236C2299.56 406.423 2303.52 420.358 2305.06 436.04ZM2391.22 603H2323.21L2411.55 341.182H2495.8L2584.13 603H2516.12L2454.63 407.148H2452.59L2391.22 603ZM2382.15 499.96H2524.3V548.028H2382.15V499.96ZM2612.32 603V341.182H2675.6V551.608H2784.52V603H2612.32ZM2817.28 603V341.182H2880.57V551.608H2989.49V603H2817.28Z" fill="#0980B7"/>
<path d="M955.714 687.727H1029.73L1092.51 840.824H1095.41L1158.19 687.727H1232.21V935H1174.01V783.111H1171.96L1112.55 933.43H1075.37L1015.96 782.266H1013.91V935H955.714V687.727ZM1329.25 687.727V935H1269.48V687.727H1329.25ZM1358.68 736.264V687.727H1567.68V736.264H1492.7V935H1433.78V736.264H1358.68ZM1656.63 687.727V935H1596.87V687.727H1656.63ZM1856.42 768.501C1855.06 763.43 1853.04 758.963 1850.39 755.099C1847.73 751.155 1844.47 747.815 1840.61 745.078C1836.74 742.341 1832.32 740.289 1827.33 738.92C1822.34 737.472 1816.86 736.747 1810.91 736.747C1798.91 736.747 1788.53 739.645 1779.76 745.44C1771.06 751.236 1764.34 759.687 1759.59 770.795C1754.84 781.823 1752.47 795.225 1752.47 811.001C1752.47 826.858 1754.76 840.381 1759.35 851.57C1763.94 862.758 1770.58 871.29 1779.27 877.166C1787.97 883.042 1798.51 885.98 1810.91 885.98C1821.85 885.98 1831.11 884.209 1838.68 880.668C1846.32 877.045 1852.12 871.934 1856.06 865.334C1860.01 858.733 1861.98 850.966 1861.98 842.031L1873.09 843.359H1812.96V799.773H1919.57V832.493C1919.57 854.628 1914.86 873.584 1905.44 889.361C1896.11 905.137 1883.23 917.251 1866.81 925.703C1850.47 934.155 1831.67 938.381 1810.42 938.381C1786.84 938.381 1766.11 933.269 1748.24 923.047C1730.37 912.824 1716.45 898.255 1706.47 879.339C1696.49 860.343 1691.5 837.805 1691.5 811.726C1691.5 791.442 1694.51 773.452 1700.55 757.756C1706.59 741.979 1715 728.617 1725.79 717.67C1736.65 706.723 1749.21 698.433 1763.46 692.798C1777.78 687.164 1793.2 684.347 1809.7 684.347C1824.03 684.347 1837.35 686.399 1849.66 690.504C1862.06 694.609 1873.01 700.405 1882.5 707.891C1892.08 715.376 1899.85 724.271 1905.81 734.574C1911.76 744.877 1915.47 756.186 1916.91 768.501H1856.42ZM2000.65 935H1936.41L2019.84 687.727H2099.41L2182.84 935H2118.61L2060.53 750.028H2058.6L2000.65 935ZM1992.07 837.685H2126.34V883.082H1992.07V837.685ZM2170.5 736.264V687.727H2379.49V736.264H2304.52V935H2245.6V736.264H2170.5ZM2468.45 687.727V935H2408.68V687.727H2468.45ZM2739.36 811.364C2739.36 838.57 2734.12 861.631 2723.66 880.547C2713.2 899.463 2699.03 913.83 2681.16 923.651C2663.37 933.471 2643.41 938.381 2621.27 938.381C2599.06 938.381 2579.06 933.43 2561.27 923.53C2543.48 913.629 2529.35 899.261 2518.89 880.426C2508.5 861.51 2503.31 838.49 2503.31 811.364C2503.31 784.157 2508.5 761.096 2518.89 742.18C2529.35 723.265 2543.48 708.897 2561.27 699.077C2579.06 689.257 2599.06 684.347 2621.27 684.347C2643.41 684.347 2663.37 689.257 2681.16 699.077C2699.03 708.897 2713.2 723.265 2723.66 742.18C2734.12 761.096 2739.36 784.157 2739.36 811.364ZM2678.26 811.364C2678.26 795.265 2675.97 781.662 2671.38 770.554C2666.87 759.446 2660.35 751.035 2651.82 745.32C2643.37 739.605 2633.19 736.747 2621.27 736.747C2609.44 736.747 2599.26 739.605 2590.73 745.32C2582.19 751.035 2575.63 759.446 2571.05 770.554C2566.54 781.662 2564.29 795.265 2564.29 811.364C2564.29 827.462 2566.54 841.065 2571.05 852.173C2575.63 863.281 2582.19 871.693 2590.73 877.408C2599.26 883.123 2609.44 885.98 2621.27 885.98C2633.19 885.98 2643.37 883.123 2651.82 877.408C2660.35 871.693 2666.87 863.281 2671.38 852.173C2675.97 841.065 2678.26 827.462 2678.26 811.364ZM2984.7 687.727V935H2933.99L2835.58 792.287H2834.02V935H2774.25V687.727H2825.68L2923 830.199H2925.05V687.727H2984.7Z" fill="#025586"/>
</g>
<defs>
<linearGradient id="paint0_linear_7_74" x1="500.588" y1="160.805" x2="462.358" y2="1053.19" gradientUnits="userSpaceOnUse">
<stop stop-color="#01578A"/>
<stop offset="1" stop-color="#001724"/>
</linearGradient>
<linearGradient id="paint1_linear_7_74" x1="424.95" y1="611.782" x2="482.891" y2="536.83" gradientUnits="userSpaceOnUse">
<stop stop-color="#013554"/>
<stop offset="1" stop-color="#013C5F"/>
</linearGradient>
<clipPath id="clip0_7_74">
<rect width="3208" height="1340" fill="white"/>
</clipPath>
</defs>
</svg>
